<svg xmlns="http://www.w3.org/2000/svg" width="72" height="72" viewBox="0 0 72 72" fill="none">
<path fill-rule="evenodd" clip-rule="evenodd" d="M13.5 58H34.5H36H55.5C64.6127 58 72 50.6127 72 41.5C72 32.3873 64.6127 25 55.5 25C55.1382 25 54.7791 25.0116 54.4231 25.0346C50.6566 17.879 43.1481 13 34.5 13C23.6003 13 14.5107 20.7504 12.4418 31.0409C5.48057 31.5806 0 37.4003 0 44.5C0 51.9558 6.04416 58 13.5 58Z" fill="#E7F1FF" />
<path fill-rule="evenodd" clip-rule="evenodd" d="M13.5 58H34.5H36H55.5C64.6127 58 72 50.6127 72 41.5C72 32.3873 64.6127 25 55.5 25C55.1382 25 54.7791 25.0116 54.4231 25.0346C50.6566 17.879 43.1481 13 34.5 13C23.6003 13 14.5107 20.7504 12.4418 31.0409C5.48057 31.5806 0 37.4003 0 44.5C0 51.9558 6.04416 58 13.5 58Z" fill="url(#paint0_linear_582_42049)" />
<path fill-rule="evenodd" clip-rule="evenodd" d="M13.5 58H34.5H36H55.5C64.6127 58 72 50.6127 72 41.5C72 32.3873 64.6127 25 55.5 25C55.1382 25 54.7791 25.0116 54.4231 25.0346C50.6566 17.879 43.1481 13 34.5 13C23.6003 13 14.5107 20.7504 12.4418 31.0409C5.48057 31.5806 0 37.4003 0 44.5C0 51.9558 6.04416 58 13.5 58Z" fill="url(#paint1_linear_582_42049)" />
<path d="M0 44.5C0 37.0442 6.04416 31 13.5 31H18C27.9411 31 36 39.0589 36 49V58H13.5C6.04416 58 0 51.9558 0 44.5V44.5Z" fill="url(#paint2_radial_582_42049)" />
<path d="M12 35.5C12 23.0736 22.0736 13 34.5 13V13C46.9264 13 57 23.0736 57 35.5V35.5C57 47.9264 46.9264 58 34.5 58V58C22.0736 58 12 47.9264 12 35.5V35.5Z" fill="url(#paint3_radial_582_42049)" />
<circle cx="55.5" cy="41.5" r="16.5" fill="url(#paint4_radial_582_42049)" />
<defs>
<linearGradient id="paint0_linear_582_42049" x1="22.5" y1="23.5" x2="36" y2="58" gradientUnits="userSpaceOnUse">
<stop stop-color="#C6D8F5" />
<stop offset="1" stop-color="#89AFD1" stop-opacity="0" />
</linearGradient>
<linearGradient id="paint1_linear_582_42049" x1="32.0998" y1="59.5925" x2="31.1538" y2="13" gradientUnits="userSpaceOnUse">
<stop stop-color="#547DDA" />
<stop offset="0.257422" stop-color="#93C2FF" stop-opacity="0" />
</linearGradient>
<radialGradient id="paint2_radial_582_42049" cx="0" cy="0" r="1" gradientUnits="userSpaceOnUse" gradientTransform="translate(19.5 58) rotate(-127.875) scale(28.5044 32.9871)">
<stop offset="0.683784" stop-color="#8FABDD" stop-opacity="0" />
<stop offset="1" stop-color="#5582D3" />
</radialGradient>
<radialGradient id="paint3_radial_582_42049" cx="0" cy="0" r="1" gradientUnits="userSpaceOnUse" gradientTransform="translate(34.5 53.5) rotate(-90) scale(40.5)">
<stop offset="0.598765" stop-color="#C7DFFF" stop-opacity="0" />
<stop offset="1" stop-color="#6B97E6" />
</radialGradient>
<radialGradient id="paint4_radial_582_42049" cx="0" cy="0" r="1" gradientUnits="userSpaceOnUse" gradientTransform="translate(46.7 53.6) rotate(-56.3099) scale(31.7288)">
<stop offset="0.47771" stop-color="#8FABDD" stop-opacity="0" />
<stop offset="1" stop-color="#5582D3" />
</radialGradient>
</defs>
<rect x="36" width="36" height="36" rx="18" fill="#C42B1C" /><path d="M55.9907 28H53.644V11.9819C53.3013 12.272 52.7256 12.6104 51.917 12.9971C51.1084 13.375 50.3789 13.6475 49.7285 13.8145L49.0693 11.7842C50.0977 11.5117 51.1787 11.0811 52.3125 10.4922C53.4463 9.89453 54.3428 9.28809 55.002 8.67285H55.9907V28Z" fill="white" /></svg>