<svg width="72" height="73" viewBox="0 0 72 73" fill="none" xmlns="http://www.w3.org/2000/svg">
<path d="M30.5912 2.26459C31.0278 0.635195 32.7026 -0.331763 34.332 0.104833L69.7354 9.59115C71.3648 10.0278 72.3318 11.7026 71.8952 13.332L62.4088 48.7354C61.9722 50.3648 60.2974 51.3318 58.668 50.8952L23.2646 41.4088C21.6352 40.9722 20.6682 39.2974 21.1048 37.668L30.5912 2.26459Z" fill="url(#paint0_linear_7990_145298)"/>
<path d="M0.139472 35.7209C-0.358437 34.1406 0.518991 32.4559 2.09926 31.958L36.4352 21.1395C38.0155 20.6416 39.7002 21.519 40.1981 23.0993L51.0166 57.4352C51.5145 59.0155 50.6371 60.7002 49.0568 61.1981L14.7209 72.0166C13.1406 72.5145 11.4559 71.6371 10.958 70.0568L0.139472 35.7209Z" fill="url(#paint1_linear_7990_145298)"/>
<path d="M0.0393066 35.3044C0.0622651 35.4434 0.0953085 35.5825 0.138888 35.7209L10.9574 70.0568C11.2572 71.0082 11.9871 71.7048 12.8654 72H14.773L49.0563 61.1981C50.6365 60.7002 51.514 59.0155 51.016 57.4352L42.3718 30H8.31295L2.09868 31.958C1.75147 32.0674 1.4382 32.2341 1.16599 32.4443C0.562363 33.2635 0.161998 34.2417 0.0393066 35.3044Z" fill="url(#paint2_radial_7990_145298)"/>
<path d="M0.0393066 35.3044C0.0622651 35.4434 0.0953085 35.5825 0.138888 35.7209L10.9574 70.0568C11.2572 71.0082 11.9871 71.7048 12.8654 72H14.773L49.0563 61.1981C50.6365 60.7002 51.514 59.0155 51.016 57.4352L42.3718 30H8.31295L2.09868 31.958C1.75147 32.0674 1.4382 32.2341 1.16599 32.4443C0.562363 33.2635 0.161998 34.2417 0.0393066 35.3044Z" fill="url(#paint3_radial_7990_145298)"/>
<rect x="6" y="15" width="60" height="42" rx="6" fill="url(#paint4_linear_7990_145298)"/>
<rect x="6" y="15" width="60" height="42" rx="6" fill="url(#paint5_radial_7990_145298)"/>
<rect x="6" y="15" width="60" height="42" rx="6" fill="url(#paint6_radial_7990_145298)"/>
<path d="M42 25.7143C42 24.7675 42.7675 24 43.7143 24H58.2857C59.2325 24 60 24.7675 60 25.7143V25.7143C60 26.6611 59.2325 27.4286 58.2857 27.4286H43.7143C42.7675 27.4286 42 26.6611 42 25.7143V25.7143Z" fill="white"/>
<path d="M42 36.0004C42 35.0536 42.7675 34.2861 43.7143 34.2861H58.2857C59.2325 34.2861 60 35.0536 60 36.0004V36.0004C60 36.9472 59.2325 37.7147 58.2857 37.7147H43.7143C42.7675 37.7147 42 36.9472 42 36.0004V36.0004Z" fill="white"/>
<path d="M42 46.2863C42 45.3396 42.7675 44.5721 43.7142 44.572L55.2856 44.5714C56.2324 44.5713 57 45.3389 57 46.2857V46.2857C57 47.2324 56.2325 47.9999 55.2858 48L43.7144 48.0006C42.7676 48.0007 42 47.2331 42 46.2863V46.2863Z" fill="white"/>
<path d="M34.2285 47.9188C32.1088 48.5208 29.0399 43.6658 27.3739 37.0748C25.7079 30.4837 26.0756 24.6525 28.1953 24.0505C30.3149 23.4484 33.3838 28.3034 35.0499 34.8945C36.7159 41.4855 36.3481 47.3167 34.2285 47.9188Z" fill="#FFA0BA"/>
<path d="M27.5352 24.4561L11.7179 38.3588C9.64668 40.1985 10.5482 43.765 13.2096 44.2604L13.617 44.3362C16.9297 44.9529 19.7548 47.2143 21.1256 50.3466C21.4648 50.9694 22.2161 51.1828 22.8036 50.8232C23.3911 50.4636 23.5924 49.6672 23.2532 49.0444C22.6816 47.6602 23.8108 46.217 25.2641 46.4744L33.6345 47.9571L33.6326 47.9499C31.5658 47.6288 28.8892 43.0695 27.3736 37.0735C25.8987 31.2385 26.0178 25.999 27.5352 24.4561Z" fill="white"/>
<defs>
<linearGradient id="paint0_linear_7990_145298" x1="45.8152" y1="0.38544" x2="46.7733" y2="27.4868" gradientUnits="userSpaceOnUse">
<stop stop-color="#1479E2"/>
<stop offset="1" stop-color="#16BFDF"/>
</linearGradient>
<linearGradient id="paint1_linear_7990_145298" x1="17.4645" y1="20.8259" x2="27.0683" y2="70.2024" gradientUnits="userSpaceOnUse">
<stop stop-color="#1479E2"/>
<stop offset="1" stop-color="#9A59F5"/>
</linearGradient>
<radialGradient id="paint2_radial_7990_145298" cx="0" cy="0" r="1" gradientUnits="userSpaceOnUse" gradientTransform="translate(19.4998 55.5) scale(61.5 7.38088)">
<stop stop-color="#09011B"/>
<stop offset="1" stop-color="#47229F" stop-opacity="0"/>
</radialGradient>
<radialGradient id="paint3_radial_7990_145298" cx="0" cy="0" r="1" gradientUnits="userSpaceOnUse" gradientTransform="translate(7.49976 30) rotate(90) scale(37.5 5.7446)">
<stop stop-color="#09011B"/>
<stop offset="1" stop-color="#47229F" stop-opacity="0"/>
</radialGradient>
<linearGradient id="paint4_linear_7990_145298" x1="64.9286" y1="57" x2="5.08233" y2="12.3658" gradientUnits="userSpaceOnUse">
<stop stop-color="#FF5F3D"/>
<stop offset="0.399006" stop-color="#F2598A"/>
</linearGradient>
<radialGradient id="paint5_radial_7990_145298" cx="0" cy="0" r="1" gradientUnits="userSpaceOnUse" gradientTransform="translate(71.7181 64.8094) rotate(-140.76) scale(84.8515 112.508)">
<stop stop-color="#FFB152"/>
<stop offset="0.388557" stop-color="#FFB152" stop-opacity="0"/>
</radialGradient>
<radialGradient id="paint6_radial_7990_145298" cx="0" cy="0" r="1" gradientUnits="userSpaceOnUse" gradientTransform="translate(1.5 12) rotate(39.9478) scale(49.3435 65.4264)">
<stop stop-color="#A44CE3"/>
<stop offset="0.557344" stop-color="#A44CE3" stop-opacity="0"/>
</radialGradient>
</defs>
</svg>
