<svg width="72" height="72" viewBox="0 0 72 72" fill="none" xmlns="http://www.w3.org/2000/svg">
<g clip-path="url(#clip0_2830_19431)">
<mask id="mask0_2830_19431" style="mask-type:luminance" maskUnits="userSpaceOnUse" x="0" y="0" width="72" height="72">
<path d="M72 0H0V72H72V0Z" fill="white"/>
</mask>
<g mask="url(#mask0_2830_19431)">
<mask id="mask1_2830_19431" style="mask-type:luminance" maskUnits="userSpaceOnUse" x="-1" y="-1" width="74" height="74">
<path d="M-0.25 -0.25H72.25V72.25H-0.25V-0.25Z" fill="white"/>
</mask>
<g mask="url(#mask1_2830_19431)">
<path d="M23.4916 28.5696L10.1065 41.9094C9.15329 42.8594 9.15329 44.3999 10.1065 45.35L13.8703 49.101C14.8236 50.051 16.3694 50.051 17.3226 49.101L30.7077 35.7612C31.6611 34.8112 31.6611 33.2707 30.7077 32.3206L26.944 28.5696C26.4673 28.0946 25.8426 27.857 25.2179 27.857C24.5931 27.857 23.9683 28.0946 23.4916 28.5696Z" fill="url(#paint0_linear_2830_19431)"/>
<path d="M23.5069 28.5993L18.0171 34.0705L27.1836 43.2088C28.1368 44.1589 29.6826 44.1589 30.6359 43.2088L34.3995 39.4578C35.353 38.5078 35.353 36.9673 34.3995 36.0173L26.9593 28.5993C26.4826 28.1243 25.8579 27.8867 25.2332 27.8867C24.6084 27.8867 23.9836 28.1243 23.5069 28.5993Z" fill="url(#paint1_linear_2830_19431)"/>
</g>
</g>
</g>
<defs>
<linearGradient id="paint0_linear_2830_19431" x1="11.9642" y1="47.1986" x2="28.6104" y2="30.4221" gradientUnits="userSpaceOnUse">
<stop stop-color="#107C10"/>
<stop offset="0.5" stop-color="#0E7012"/>
<stop offset="1" stop-color="#0B6413"/>
</linearGradient>
<linearGradient id="paint1_linear_2830_19431" x1="21.6079" y1="30.4869" x2="41.1989" y2="49.2549" gradientUnits="userSpaceOnUse">
<stop stop-color="#33990F"/>
<stop offset="0.5" stop-color="#218A10"/>
<stop offset="1" stop-color="#107C10"/>
</linearGradient>
<clipPath id="clip0_2830_19431">
<rect width="72" height="72" fill="white"/>
</clipPath>
</defs>
</svg>
