<svg width="72" height="72" viewBox="0 0 72 72" fill="none" xmlns="http://www.w3.org/2000/svg">
<g clip-path="url(#clip0_2830_19863)">
<mask id="mask0_2830_19863" style="mask-type:luminance" maskUnits="userSpaceOnUse" x="0" y="0" width="72" height="72">
<path d="M72 0H0V72H72V0Z" fill="white"/>
</mask>
<g mask="url(#mask0_2830_19863)">
<mask id="mask1_2830_19863" style="mask-type:luminance" maskUnits="userSpaceOnUse" x="-1" y="-1" width="74" height="74">
<path d="M-0.25 -0.25H72.25V72.25H-0.25V-0.25Z" fill="white"/>
</mask>
<g mask="url(#mask1_2830_19863)">
<path d="M21.9087 27.6292L6.82959 42.6573C5.7557 43.7275 5.7557 45.463 6.82959 46.5333L11.0697 50.759C12.1437 51.8293 13.885 51.8293 14.9589 50.759L30.038 35.731C31.112 34.6607 31.112 32.9253 30.038 31.8549L25.7979 27.6292C25.2609 27.0941 24.5572 26.8264 23.8534 26.8264C23.1495 26.8264 22.4457 27.0941 21.9087 27.6292Z" fill="url(#paint0_linear_2830_19863)"/>
<path d="M21.9258 27.6627L15.7412 33.8264L35.4748 53.4931C36.5486 54.5634 38.2901 54.5634 39.364 53.4931L43.6039 49.2674C44.678 48.197 44.678 46.4616 43.6039 45.3914L25.8151 27.6627C25.2781 27.1275 24.5744 26.8599 23.8705 26.8599C23.1667 26.8599 22.4629 27.1275 21.9258 27.6627Z" fill="url(#paint1_linear_2830_19863)"/>
<path d="M56.786 19.2762H37.6251C36.1089 19.2762 34.8797 20.5054 34.8797 22.0216V27.9884C34.8797 29.5046 36.1089 30.7338 37.6251 30.7338H45.8948L29.2729 47.2959L35.4576 53.4596C36.5315 54.5299 38.2728 54.5299 39.3467 53.4596L54.0406 38.8192V47.0843C54.0406 48.6006 55.2697 49.8297 56.786 49.8297H62.7917C64.308 49.8297 65.5371 48.6006 65.5371 47.0843V27.9884V22.0216C65.5371 20.6476 64.5277 19.5093 63.2098 19.3079C63.1001 19.2912 62.9883 19.2808 62.8749 19.2775C62.8589 19.2769 62.8432 19.2767 62.8272 19.2764C62.8153 19.2763 62.8036 19.2762 62.7917 19.2762H56.786Z" fill="url(#paint2_linear_2830_19863)"/>
</g>
</g>
</g>
<defs>
<linearGradient id="paint0_linear_2830_19863" x1="8.92241" y1="48.6158" x2="27.6753" y2="29.7161" gradientUnits="userSpaceOnUse">
<stop stop-color="#107C10"/>
<stop offset="0.5" stop-color="#0E7012"/>
<stop offset="1" stop-color="#0B6413"/>
</linearGradient>
<linearGradient id="paint1_linear_2830_19863" x1="19.7865" y1="29.7891" x2="41.8569" y2="50.9324" gradientUnits="userSpaceOnUse">
<stop stop-color="#33990F"/>
<stop offset="0.5" stop-color="#218A10"/>
<stop offset="1" stop-color="#107C10"/>
</linearGradient>
<linearGradient id="paint2_linear_2830_19863" x1="65.4827" y1="19.5226" x2="32.7399" y2="50.6783" gradientUnits="userSpaceOnUse">
<stop stop-color="#78D30C"/>
<stop offset="0.5" stop-color="#67C50D"/>
<stop offset="1" stop-color="#56B60E"/>
</linearGradient>
<clipPath id="clip0_2830_19863">
<rect width="72" height="72" fill="white"/>
</clipPath>
</defs>
</svg>
