<svg width="72" height="72" viewBox="0 0 72 72" fill="none" xmlns="http://www.w3.org/2000/svg">
<g clip-path="url(#clip0_2830_19755)">
<mask id="mask0_2830_19755" style="mask-type:luminance" maskUnits="userSpaceOnUse" x="0" y="0" width="72" height="72">
<path d="M72 0H0V72H72V0Z" fill="white"/>
</mask>
<g mask="url(#mask0_2830_19755)">
<mask id="mask1_2830_19755" style="mask-type:luminance" maskUnits="userSpaceOnUse" x="-1" y="-1" width="74" height="74">
<path d="M-0.25 -0.25H72.25V72.25H-0.25V-0.25Z" fill="white"/>
</mask>
<g mask="url(#mask1_2830_19755)">
<path d="M22.648 28.0684L8.36008 42.308C7.34254 43.3221 7.34254 44.9664 8.36008 45.9806L12.3777 49.9846C13.3953 50.9988 15.0453 50.9988 16.0629 49.9846L30.3508 35.7451C31.3685 34.731 31.3685 33.0866 30.3508 32.0724L26.3332 28.0684C25.8244 27.5613 25.1576 27.3077 24.4907 27.3077C23.8237 27.3077 23.1568 27.5613 22.648 28.0684Z" fill="url(#paint0_linear_2830_19755)"/>
<path d="M22.6643 28.1002L16.8042 33.9404L35.5024 52.5752C36.5198 53.5894 38.17 53.5894 39.1875 52.5752L43.205 48.5712C44.2228 47.5571 44.2228 45.9127 43.205 44.8986L26.3495 28.1002C25.8407 27.5931 25.1739 27.3395 24.507 27.3395C23.8401 27.3395 23.1732 27.5931 22.6643 28.1002Z" fill="url(#paint1_linear_2830_19755)"/>
<path d="M53.4144 22.4389H35.2588C33.8221 22.4389 32.6575 23.6036 32.6575 25.0402V30.694C32.6575 32.1307 33.8221 33.2953 35.2588 33.2953H43.0946L29.626 46.7032L35.4861 52.5435C36.5037 53.5577 38.1536 53.5577 39.1712 52.5435L50.813 40.9565V48.788C50.813 50.2247 51.9777 51.3893 53.4144 51.3893H59.105C60.5417 51.3893 61.7063 50.2247 61.7063 48.788V30.694V25.0402C61.7063 23.7384 60.7498 22.6598 59.5012 22.469C59.3971 22.4531 59.2913 22.4432 59.1837 22.4401C59.1686 22.4396 59.1538 22.4394 59.1385 22.4391C59.1273 22.439 59.1162 22.4389 59.105 22.4389H53.4144Z" fill="url(#paint2_linear_2830_19755)"/>
</g>
</g>
</g>
<defs>
<linearGradient id="paint0_linear_2830_19755" x1="10.3431" y1="47.9539" x2="28.1121" y2="30.0458" gradientUnits="userSpaceOnUse">
<stop stop-color="#107C10"/>
<stop offset="0.5" stop-color="#0E7012"/>
<stop offset="1" stop-color="#0B6413"/>
</linearGradient>
<linearGradient id="paint1_linear_2830_19755" x1="20.6372" y1="30.115" x2="41.5496" y2="50.1489" gradientUnits="userSpaceOnUse">
<stop stop-color="#33990F"/>
<stop offset="0.5" stop-color="#218A10"/>
<stop offset="1" stop-color="#107C10"/>
</linearGradient>
<linearGradient id="paint2_linear_2830_19755" x1="63.9358" y1="20.3871" x2="32.911" y2="49.9082" gradientUnits="userSpaceOnUse">
<stop stop-color="#78D30C"/>
<stop offset="0.5" stop-color="#67C50D"/>
<stop offset="1" stop-color="#56B60E"/>
</linearGradient>
<clipPath id="clip0_2830_19755">
<rect width="72" height="72" fill="white"/>
</clipPath>
</defs>
</svg>
