<svg width="72" height="72" viewBox="0 0 72 72" fill="none" xmlns="http://www.w3.org/2000/svg">
<g clip-path="url(#clip0_2830_19701)">
<mask id="mask0_2830_19701" style="mask-type:luminance" maskUnits="userSpaceOnUse" x="0" y="0" width="72" height="72">
<path d="M72 0H0V72H72V0Z" fill="white"/>
</mask>
<g mask="url(#mask0_2830_19701)">
<mask id="mask1_2830_19701" style="mask-type:luminance" maskUnits="userSpaceOnUse" x="-1" y="-1" width="74" height="74">
<path d="M-0.25 -0.25H72.25V72.25H-0.25V-0.25Z" fill="white"/>
</mask>
<g mask="url(#mask1_2830_19701)">
<path d="M22.8925 28.2138L8.86636 42.1925C7.86746 43.1879 7.86746 44.8022 8.86636 45.7978L12.8103 49.7284C13.8094 50.724 15.4291 50.724 16.428 49.7284L30.4542 35.7498C31.4532 34.7542 31.4532 33.14 30.4542 32.1444L26.5102 28.2138C26.0107 27.716 25.3561 27.467 24.7014 27.467C24.0467 27.467 23.392 27.716 22.8925 28.2138Z" fill="url(#paint0_linear_2830_19701)"/>
<path d="M22.9085 28.2449L17.1558 33.9782L35.5114 52.2715C36.5102 53.2671 38.13 53.2671 39.1289 52.2715L43.0728 48.3409C44.0719 47.3453 44.0719 45.7311 43.0728 44.7356L26.5262 28.2449C26.0267 27.7471 25.3721 27.4982 24.7174 27.4982C24.0627 27.4982 23.408 27.7471 22.9085 28.2449Z" fill="url(#paint1_linear_2830_19701)"/>
<path d="M49.9764 25.8117H32.1535C30.7431 25.8117 29.5999 26.9552 29.5999 28.3654V33.9156C29.5999 35.326 30.7431 36.4693 32.1535 36.4693H39.8458L29.7426 46.5071L35.4954 52.2404C36.4943 53.236 38.114 53.236 39.1129 52.2404L47.4227 43.9901V51.678C47.4227 53.0884 48.566 54.2317 49.9764 54.2317H55.5627C56.9731 54.2317 58.1164 53.0884 58.1164 51.678V33.9156V28.3654C58.1164 27.0874 57.1775 26.0286 55.9517 25.8413C55.8496 25.8257 55.7456 25.816 55.6401 25.813C55.6253 25.8125 55.6107 25.8122 55.5957 25.812C55.5847 25.8119 55.5738 25.8117 55.5627 25.8117H49.9764Z" fill="url(#paint2_linear_2830_19701)"/>
</g>
</g>
</g>
<defs>
<linearGradient id="paint0_linear_2830_19701" x1="10.813" y1="47.7349" x2="28.2564" y2="30.1549" gradientUnits="userSpaceOnUse">
<stop stop-color="#107C10"/>
<stop offset="0.5" stop-color="#0E7012"/>
<stop offset="1" stop-color="#0B6413"/>
</linearGradient>
<linearGradient id="paint1_linear_2830_19701" x1="20.9186" y1="30.2228" x2="41.4478" y2="49.8897" gradientUnits="userSpaceOnUse">
<stop stop-color="#33990F"/>
<stop offset="0.5" stop-color="#218A10"/>
<stop offset="1" stop-color="#107C10"/>
</linearGradient>
<linearGradient id="paint2_linear_2830_19701" x1="63.4238" y1="20.6732" x2="32.9674" y2="49.6534" gradientUnits="userSpaceOnUse">
<stop stop-color="#78D30C"/>
<stop offset="0.5" stop-color="#67C50D"/>
<stop offset="1" stop-color="#56B60E"/>
</linearGradient>
<clipPath id="clip0_2830_19701">
<rect width="72" height="72" fill="white"/>
</clipPath>
</defs>
</svg>
