<svg width="72" height="72" viewBox="0 0 72 72" fill="none" xmlns="http://www.w3.org/2000/svg">
<g clip-path="url(#clip0_2830_19809)">
<mask id="mask0_2830_19809" style="mask-type:luminance" maskUnits="userSpaceOnUse" x="0" y="0" width="72" height="72">
<path d="M72 0H0V72H72V0Z" fill="white"/>
</mask>
<g mask="url(#mask0_2830_19809)">
<mask id="mask1_2830_19809" style="mask-type:luminance" maskUnits="userSpaceOnUse" x="-1" y="-1" width="74" height="74">
<path d="M-0.25 -0.25H72.25V72.25H-0.25V-0.25Z" fill="white"/>
</mask>
<g mask="url(#mask1_2830_19809)">
<path d="M22.3297 27.8794L7.70127 42.4584C6.65947 43.4966 6.65947 45.1802 7.70127 46.2185L11.8146 50.3179C12.8566 51.3563 14.5459 51.3563 15.5877 50.3179L30.2161 35.7391C31.2581 34.7007 31.2581 33.0171 30.2161 31.9788L26.1028 27.8794C25.5818 27.3602 24.8991 27.1006 24.2163 27.1006C23.5335 27.1006 22.8507 27.3602 22.3297 27.8794Z" fill="url(#paint0_linear_2830_19809)"/>
<path d="M22.3465 27.9118L16.3467 33.8913L35.4906 52.9703C36.5323 54.0086 38.2217 54.0086 39.2635 52.9703L43.3767 48.8709C44.4188 47.8325 44.4188 46.149 43.3767 45.1107L26.1195 27.9118C25.5986 27.3927 24.9159 27.133 24.2331 27.133C23.5503 27.133 22.8675 27.3927 22.3465 27.9118Z" fill="url(#paint1_linear_2830_19809)"/>
<path d="M55.3409 20.6014H36.7526C35.2816 20.6014 34.0892 21.794 34.0892 23.2648V29.0533C34.0892 30.5243 35.2816 31.7167 36.7526 31.7167H44.7751L29.474 46.9583L35.4738 52.9378C36.5156 53.9762 38.2049 53.9762 39.2467 52.9378L52.6775 39.5605V47.5786C52.6775 49.0495 53.8699 50.2419 55.3409 50.2419H61.1671C62.638 50.2419 63.8304 49.0495 63.8304 47.5786V29.0533V23.2648C63.8304 21.9319 62.8511 20.8276 61.5727 20.6323C61.4662 20.616 61.3578 20.6059 61.2477 20.6027C61.2323 20.6022 61.2171 20.602 61.2015 20.6017C61.19 20.6016 61.1786 20.6014 61.1671 20.6014H55.3409Z" fill="url(#paint2_linear_2830_19809)"/>
</g>
</g>
</g>
<defs>
<linearGradient id="paint0_linear_2830_19809" x1="9.73155" y1="48.2388" x2="27.924" y2="29.9039" gradientUnits="userSpaceOnUse">
<stop stop-color="#107C10"/>
<stop offset="0.5" stop-color="#0E7012"/>
<stop offset="1" stop-color="#0B6413"/>
</linearGradient>
<linearGradient id="paint1_linear_2830_19809" x1="20.2711" y1="29.9747" x2="41.6819" y2="50.4862" gradientUnits="userSpaceOnUse">
<stop stop-color="#33990F"/>
<stop offset="0.5" stop-color="#218A10"/>
<stop offset="1" stop-color="#107C10"/>
</linearGradient>
<linearGradient id="paint2_linear_2830_19809" x1="64.6017" y1="20.015" x2="32.8373" y2="50.2397" gradientUnits="userSpaceOnUse">
<stop stop-color="#78D30C"/>
<stop offset="0.5" stop-color="#67C50D"/>
<stop offset="1" stop-color="#56B60E"/>
</linearGradient>
<clipPath id="clip0_2830_19809">
<rect width="72" height="72" fill="white"/>
</clipPath>
</defs>
</svg>
