<svg width="72" height="72" viewBox="0 0 72 72" fill="none" xmlns="http://www.w3.org/2000/svg">
<g clip-path="url(#clip0_2836_22152)">
<mask id="mask0_2836_22152" style="mask-type:luminance" maskUnits="userSpaceOnUse" x="0" y="0" width="72" height="72">
<path d="M72 0H0V72H72V0Z" fill="white"/>
</mask>
<g mask="url(#mask0_2836_22152)">
<mask id="mask1_2836_22152" style="mask-type:luminance" maskUnits="userSpaceOnUse" x="-1" y="-1" width="74" height="74">
<path d="M-0.25 -0.25H72.25V72.25H-0.25V-0.25Z" fill="white"/>
</mask>
<g mask="url(#mask1_2836_22152)">
<path d="M7.92719 16.6689L3.06339 21.5162C1.83141 22.744 1.83141 24.7348 3.06339 25.9625L20.3607 43.201C21.5927 44.429 23.5902 44.429 24.8221 43.201L29.686 38.354C30.918 37.1261 30.918 35.1355 29.686 33.9077L12.3885 16.6689C11.7725 16.0549 10.9652 15.7479 10.1579 15.7479C9.35049 15.7479 8.54319 16.0549 7.92719 16.6689Z" fill="url(#paint0_linear_2836_22152)"/>
<path d="M35.9027 13.5711L13.2664 36.1308L20.3608 43.2012C21.5927 44.4291 23.5903 44.4291 24.8221 43.2012L47.4587 20.6414L40.364 13.5711C39.7482 12.9572 38.9407 12.6502 38.1335 12.6501C37.3261 12.6501 36.5188 12.957 35.9027 13.5711Z" fill="url(#paint1_linear_2836_22152)"/>
<path d="M35.9026 13.5711L28.8081 20.6414L48.6025 40.3683H39.1163C37.3769 40.3683 35.9668 41.7782 35.9668 43.5176V50.362C35.9668 52.1014 37.3769 53.5115 39.1163 53.5115H61.0959H67.985C68.61 53.5115 69.1925 53.3293 69.6824 53.0154C70.5557 52.4555 71.1343 51.4763 71.1343 50.362V21.6125C71.1343 19.8733 69.7242 18.4632 67.985 18.4632H61.0959C59.3564 18.4632 57.9465 19.8733 57.9465 21.6125V31.0937L40.364 13.5711C39.748 12.957 38.9407 12.6501 38.1334 12.6501C37.3259 12.6501 36.5186 12.957 35.9026 13.5711Z" fill="url(#paint2_linear_2836_22152)"/>
</g>
</g>
</g>
<defs>
<linearGradient id="paint0_linear_2836_22152" x1="5.82615" y1="19.0009" x2="27.3019" y2="40.742" gradientUnits="userSpaceOnUse">
<stop stop-color="#8C2011"/>
<stop offset="0.5" stop-color="#801C14"/>
<stop offset="1" stop-color="#731717"/>
</linearGradient>
<linearGradient id="paint1_linear_2836_22152" x1="17.7397" y1="40.7162" x2="42.5382" y2="16.2469" gradientUnits="userSpaceOnUse">
<stop stop-color="#D83B01"/>
<stop offset="0.5" stop-color="#BF3206"/>
<stop offset="1" stop-color="#A6290C"/>
</linearGradient>
<linearGradient id="paint2_linear_2836_22152" x1="33.4986" y1="16.3736" x2="70.3887" y2="52.6341" gradientUnits="userSpaceOnUse">
<stop stop-color="#E25A01"/>
<stop offset="0.5" stop-color="#DD4A01"/>
<stop offset="1" stop-color="#D83B01"/>
</linearGradient>
<clipPath id="clip0_2836_22152">
<rect width="72" height="72" fill="white"/>
</clipPath>
</defs>
</svg>
