<svg width="72" height="72" viewBox="0 0 72 72" fill="none" xmlns="http://www.w3.org/2000/svg">
<g clip-path="url(#clip0_2836_21666)">
<mask id="mask0_2836_21666" style="mask-type:luminance" maskUnits="userSpaceOnUse" x="0" y="0" width="72" height="72">
<path d="M72 0H0V72H72V0Z" fill="white"/>
</mask>
<g mask="url(#mask0_2836_21666)">
<mask id="mask1_2836_21666" style="mask-type:luminance" maskUnits="userSpaceOnUse" x="-1" y="-1" width="74" height="74">
<path d="M-0.25 -0.25H72.25V72.25H-0.25V-0.25Z" fill="white"/>
</mask>
<g mask="url(#mask1_2836_21666)">
<path d="M12.6004 19.887L8.54629 23.9274C7.5194 24.9507 7.5194 26.6101 8.54629 27.6335L22.9641 42.0023C23.991 43.0258 25.656 43.0258 26.6828 42.0023L30.737 37.9621C31.7639 36.9386 31.7639 35.2794 30.737 34.256L16.3191 19.887C15.8056 19.3752 15.1327 19.1193 14.4598 19.1193C13.7868 19.1193 13.1139 19.3752 12.6004 19.887Z" fill="url(#paint0_linear_2836_21666)"/>
<path d="M28.9997 24.1924L17.0507 36.1091L22.964 42.0024C23.9909 43.0259 25.6559 43.0259 26.6827 42.0024L38.632 30.0857L32.7184 24.1924C32.2051 23.6807 31.532 23.4249 30.8592 23.4247C30.1862 23.4247 29.5133 23.6806 28.9997 24.1924Z" fill="url(#paint1_linear_2836_21666)"/>
</g>
</g>
</g>
<defs>
<linearGradient id="paint0_linear_2836_21666" x1="10.8491" y1="21.8308" x2="28.7498" y2="39.9526" gradientUnits="userSpaceOnUse">
<stop stop-color="#8C2011"/>
<stop offset="0.5" stop-color="#801C14"/>
<stop offset="1" stop-color="#731717"/>
</linearGradient>
<linearGradient id="paint1_linear_2836_21666" x1="20.7793" y1="39.9311" x2="41.4496" y2="19.5352" gradientUnits="userSpaceOnUse">
<stop stop-color="#D83B01"/>
<stop offset="0.5" stop-color="#BF3206"/>
<stop offset="1" stop-color="#A6290C"/>
</linearGradient>
<clipPath id="clip0_2836_21666">
<rect width="72" height="72" fill="white"/>
</clipPath>
</defs>
</svg>
