<svg width="72" height="72" viewBox="0 0 72 72" fill="none" xmlns="http://www.w3.org/2000/svg">
<g clip-path="url(#clip0_2836_21126)">
<mask id="mask0_2836_21126" style="mask-type:luminance" maskUnits="userSpaceOnUse" x="0" y="0" width="72" height="72">
<path d="M72 0H0V72H72V0Z" fill="white"/>
</mask>
<g mask="url(#mask0_2836_21126)">
<mask id="mask1_2836_21126" style="mask-type:luminance" maskUnits="userSpaceOnUse" x="-1" y="-1" width="74" height="74">
<path d="M-0.25 -0.25H72.25V72.25H-0.25V-0.25Z" fill="white"/>
</mask>
<g mask="url(#mask1_2836_21126)">
<path d="M12.2292 20.6867L7.53671 25.3632C6.34812 26.5477 6.34812 28.4684 7.53671 29.6529L20.9115 42.9474C22.1001 44.132 24.0273 44.132 25.2157 42.9474L29.9083 38.271C31.0969 37.0864 31.0969 35.1659 29.9083 33.9813L16.5334 20.6867C15.9391 20.0943 15.1602 19.7981 14.3813 19.7981C13.6023 19.7981 12.8235 20.0943 12.2292 20.6867Z" fill="url(#paint0_linear_2836_21126)"/>
<path d="M35.906 14.3611L14.067 36.1262L20.9115 42.9475C22.1001 44.1321 24.0273 44.1321 25.2157 42.9475L47.0549 21.1824L40.2101 14.3611C39.616 13.7688 38.837 13.4727 38.0583 13.4726C37.2793 13.4726 36.5004 13.7687 35.906 14.3611Z" fill="url(#paint1_linear_2836_21126)"/>
<path d="M35.9062 14.3611L29.0615 21.1824L48.1906 40.2465H39.0386C37.3605 40.2465 36.0001 41.6068 36.0001 43.2849V49.8882C36.0001 51.5663 37.3605 52.9267 39.0386 52.9267H60.244H66.8904C67.4933 52.9267 68.0553 52.751 68.528 52.4481C69.3706 51.9079 69.9287 50.9632 69.9287 49.8882V22.1514C69.9287 20.4734 68.5683 19.113 66.8904 19.113H60.244C58.5658 19.113 57.2055 20.4734 57.2055 22.1514V31.2986L40.2104 14.3611C39.6161 13.7687 38.8372 13.4726 38.0583 13.4726C37.2793 13.4726 36.5005 13.7687 35.9062 14.3611Z" fill="url(#paint2_linear_2836_21126)"/>
</g>
</g>
</g>
<defs>
<linearGradient id="paint0_linear_2836_21126" x1="6.88894" y1="19.5997" x2="27.6082" y2="40.5749" gradientUnits="userSpaceOnUse">
<stop stop-color="#8C2011"/>
<stop offset="0.5" stop-color="#801C14"/>
<stop offset="1" stop-color="#731717"/>
</linearGradient>
<linearGradient id="paint1_linear_2836_21126" x1="18.3827" y1="40.5501" x2="42.3078" y2="16.9427" gradientUnits="userSpaceOnUse">
<stop stop-color="#D83B01"/>
<stop offset="0.5" stop-color="#BF3206"/>
<stop offset="1" stop-color="#A6290C"/>
</linearGradient>
<linearGradient id="paint2_linear_2836_21126" x1="33.5868" y1="17.0649" x2="69.1774" y2="52.0481" gradientUnits="userSpaceOnUse">
<stop stop-color="#E25A01"/>
<stop offset="0.5" stop-color="#DD4A01"/>
<stop offset="1" stop-color="#D83B01"/>
</linearGradient>
<clipPath id="clip0_2836_21126">
<rect width="72" height="72" fill="white"/>
</clipPath>
</defs>
</svg>
