<svg width="72" height="72" viewBox="0 0 72 72" fill="none" xmlns="http://www.w3.org/2000/svg">
<g clip-path="url(#clip0_2836_21747)">
<mask id="mask0_2836_21747" style="mask-type:luminance" maskUnits="userSpaceOnUse" x="0" y="0" width="72" height="72">
<path d="M72 0H0V72H72V0Z" fill="white"/>
</mask>
<g mask="url(#mask0_2836_21747)">
<mask id="mask1_2836_21747" style="mask-type:luminance" maskUnits="userSpaceOnUse" x="-1" y="-1" width="74" height="74">
<path d="M-0.25 -0.25H72.25V72.25H-0.25V-0.25Z" fill="white"/>
</mask>
<g mask="url(#mask1_2836_21747)">
<path d="M12.3759 19.7324L8.28293 23.8116C7.24618 24.8448 7.24618 26.52 8.28293 27.5532L22.8391 42.0599C23.8758 43.0932 25.5568 43.0932 26.5934 42.0599L30.6865 37.981C31.7233 36.9477 31.7233 35.2725 30.6865 34.2393L16.1303 19.7324C15.6119 19.2157 14.9325 18.9574 14.2532 18.9574C13.5737 18.9574 12.8943 19.2157 12.3759 19.7324Z" fill="url(#paint0_linear_2836_21747)"/>
<path d="M35.9179 17.1255L16.8689 36.1101L22.839 42.06C23.8758 43.0933 25.5567 43.0933 26.5934 42.06L45.6426 23.0754L39.6723 17.1255C39.154 16.6089 38.4745 16.3506 37.7953 16.3505C37.1158 16.3505 36.4364 16.6088 35.9179 17.1255Z" fill="url(#paint1_linear_2836_21747)"/>
</g>
</g>
</g>
<defs>
<linearGradient id="paint0_linear_2836_21747" x1="10.6079" y1="21.6949" x2="28.6803" y2="39.9906" gradientUnits="userSpaceOnUse">
<stop stop-color="#8C2011"/>
<stop offset="0.5" stop-color="#801C14"/>
<stop offset="1" stop-color="#731717"/>
</linearGradient>
<linearGradient id="paint1_linear_2836_21747" x1="20.6333" y1="39.9689" x2="41.5019" y2="19.3773" gradientUnits="userSpaceOnUse">
<stop stop-color="#D83B01"/>
<stop offset="0.5" stop-color="#BF3206"/>
<stop offset="1" stop-color="#A6290C"/>
</linearGradient>
<clipPath id="clip0_2836_21747">
<rect width="72" height="72" fill="white"/>
</clipPath>
</defs>
</svg>
