<svg width="72" height="72" viewBox="0 0 72 72" fill="none" xmlns="http://www.w3.org/2000/svg">
<g clip-path="url(#clip0_2836_21558)">
<mask id="mask0_2836_21558" style="mask-type:luminance" maskUnits="userSpaceOnUse" x="0" y="0" width="72" height="72">
<path d="M72 0H0V72H72V0Z" fill="white"/>
</mask>
<g mask="url(#mask0_2836_21558)">
<mask id="mask1_2836_21558" style="mask-type:luminance" maskUnits="userSpaceOnUse" x="-1" y="-1" width="74" height="74">
<path d="M-0.25 -0.25H72.25V72.25H-0.25V-0.25Z" fill="white"/>
</mask>
<g mask="url(#mask1_2836_21558)">
<g opacity="0.25">
<path d="M49.6686 31.1611L43.7987 37.011L46.4547 39.6418H38.6058C37.1667 39.6418 36 40.8084 36 42.2475V47.9106C36 49.3497 37.1667 50.5164 38.6058 50.5164H56.7917H62.4916C63.0087 50.5164 63.4907 50.3657 63.8961 50.1059C64.6186 49.6427 65.0973 48.8325 65.0973 47.9106V24.1234C65.0973 22.6843 63.9307 21.5176 62.4916 21.5176H56.7917C55.3524 21.5176 54.1858 22.6843 54.1858 24.1234V31.968L53.3599 31.1611C52.8503 30.653 52.1823 30.3991 51.5144 30.3991C50.8463 30.3991 50.1783 30.653 49.6686 31.1611Z" fill="url(#paint0_linear_2836_21558)"/>
</g>
<path d="M12.7727 20.0055L8.74839 24.0162C7.72905 25.032 7.72905 26.6792 8.74839 27.695L23.0601 41.9581C24.0794 42.974 25.7322 42.974 26.7514 41.9581L30.7758 37.9477C31.7951 36.9317 31.7951 35.2847 30.7758 34.2688L16.464 20.0055C15.9543 19.4975 15.2863 19.2435 14.6184 19.2435C13.9503 19.2435 13.2823 19.4975 12.7727 20.0055Z" fill="url(#paint1_linear_2836_21558)"/>
<path d="M19.894 33.3951L17.1902 36.1083L23.06 41.9582C24.0794 42.9742 25.7321 42.9742 26.7513 41.9582L29.4554 39.245L23.5853 33.3951C23.0757 32.8871 22.4076 32.6332 21.7398 32.6331C21.0717 32.6331 20.4038 32.887 19.894 33.3951Z" fill="url(#paint2_linear_2836_21558)"/>
</g>
</g>
</g>
<defs>
<linearGradient id="paint0_linear_2836_21558" x1="33.9304" y1="19.7612" x2="64.453" y2="49.7629" gradientUnits="userSpaceOnUse">
<stop stop-color="#E25A01"/>
<stop offset="0.5" stop-color="#DD4A01"/>
<stop offset="1" stop-color="#D83B01"/>
</linearGradient>
<linearGradient id="paint1_linear_2836_21558" x1="11.0343" y1="21.935" x2="28.8032" y2="39.9235" gradientUnits="userSpaceOnUse">
<stop stop-color="#8C2011"/>
<stop offset="0.5" stop-color="#801C14"/>
<stop offset="1" stop-color="#731717"/>
</linearGradient>
<linearGradient id="paint2_linear_2836_21558" x1="20.8914" y1="39.9022" x2="41.4095" y2="19.6564" gradientUnits="userSpaceOnUse">
<stop stop-color="#D83B01"/>
<stop offset="0.5" stop-color="#BF3206"/>
<stop offset="1" stop-color="#A6290C"/>
</linearGradient>
<clipPath id="clip0_2836_21558">
<rect width="72" height="72" fill="white"/>
</clipPath>
</defs>
</svg>
