<svg width="72" height="72" viewBox="0 0 72 72" fill="none" xmlns="http://www.w3.org/2000/svg">
<g clip-path="url(#clip0_3633_4021)">
<mask id="mask0_3633_4021" style="mask-type:luminance" maskUnits="userSpaceOnUse" x="0" y="0" width="72" height="72">
<path d="M72 0H0V72H72V0Z" fill="white"/>
</mask>
<g mask="url(#mask0_3633_4021)">
<mask id="mask1_3633_4021" style="mask-type:luminance" maskUnits="userSpaceOnUse" x="-1" y="-1" width="74" height="74">
<path d="M-0.25 -0.25H72.25V72.25H-0.25V-0.25Z" fill="white"/>
</mask>
<g mask="url(#mask1_3633_4021)">
<path d="M36.6499 21.2582L2.50113 31.3627C1.39077 31.6911 0.617235 32.6114 0.422567 33.6777L0.40577 34.6347C0.42613 34.7734 0.456463 34.9123 0.497349 35.0505L10.6015 69.1995C10.9103 70.2429 11.7418 70.9889 12.7257 71.2366L14.0662 71.2601C14.1407 71.2442 14.2151 71.2252 14.2895 71.2032L48.4385 61.0988C50.0103 60.6338 50.9072 58.9827 50.4422 57.4109L40.3378 23.262C39.961 21.9887 38.8059 21.1581 37.5451 21.136C37.2497 21.1308 36.9482 21.17 36.6499 21.2582Z" fill="url(#paint0_linear_3633_4021)"/>
<path d="M8.68118 29.5339L2.50068 31.3627C2.15539 31.4647 1.84272 31.6242 1.56988 31.8275C0.958452 32.6271 0.545517 33.5878 0.40572 34.6368C0.425956 34.7745 0.456297 34.9128 0.496908 35.0505L10.6014 69.1995C10.8813 70.1456 11.5911 70.8474 12.4547 71.1546L14.3416 71.1877L48.4382 61.0988C50.01 60.6338 50.9071 58.9827 50.442 57.4109L42.3686 30.1252L8.68118 29.5339Z" fill="url(#paint1_linear_3633_4021)"/>
<path d="M8.68133 29.534L2.50068 31.3627C2.15539 31.4647 1.84272 31.6242 1.56988 31.8275C0.958452 32.6271 0.545517 33.5878 0.40572 34.6368C0.425956 34.7745 0.456297 34.9128 0.496908 35.0505L6.64016 55.7597L47.8654 51.9496L42.3686 30.1252L8.68133 29.534Z" fill="url(#paint2_linear_3633_4021)"/>
<path d="M30.1858 3.03759L21.3008 38.3668C20.892 39.9929 21.8787 41.6424 23.5047 42.0515L58.8336 50.9362C60.4596 51.3451 62.1092 50.3585 62.5181 48.7324L71.4032 13.4035C71.8121 11.7774 70.8253 10.1278 69.1992 9.71883L33.8703 0.833953C33.606 0.767458 33.3413 0.737904 33.0813 0.741913C31.7411 0.762722 30.5282 1.67605 30.1858 3.03759Z" fill="url(#paint3_linear_3633_4021)"/>
<path d="M11.5433 14.8037C8.1873 14.8208 5.48044 17.5555 5.49757 20.9115L5.65266 51.2961C5.66979 54.6523 8.40442 57.359 11.7605 57.3419L60.3757 57.0937C63.7318 57.0766 66.4387 54.3421 66.4215 50.9859L66.2664 20.6013C66.2493 17.2453 63.5147 14.5384 60.1586 14.5556L11.5433 14.8037Z" fill="url(#paint4_linear_3633_4021)"/>
<path d="M11.5433 14.8037C8.1873 14.8208 5.48044 17.5555 5.49757 20.9115L5.65266 51.2961C5.66979 54.6523 8.40442 57.359 11.7605 57.3419L60.3757 57.0937C63.7318 57.0766 66.4387 54.3421 66.4215 50.9859L66.2664 20.6013C66.2493 17.2453 63.5147 14.5384 60.1586 14.5556L11.5433 14.8037Z" fill="url(#paint5_linear_3633_4021)"/>
<path d="M11.5433 14.8037C8.1873 14.8208 5.48044 17.5555 5.49757 20.9115L5.65266 51.2961C5.66979 54.6523 8.40442 57.359 11.7605 57.3419L60.3757 57.0937C63.7318 57.0766 66.4387 54.3421 66.4215 50.9859L66.2664 20.6013C66.2493 17.2453 63.5147 14.5384 60.1586 14.5556L11.5433 14.8037Z" fill="url(#paint6_radial_3633_4021)"/>
<path d="M34.2954 47.2493C32.159 47.9834 28.7475 43.1838 26.6756 36.5291C24.6038 29.8744 24.6561 23.8845 26.7925 23.1504C28.929 22.4163 32.3405 27.2158 34.4122 33.8706C36.4841 40.5252 36.4318 46.5152 34.2954 47.2493Z" fill="#FFA0BA"/>
<path d="M26.1394 23.6032L10.7197 38.7145C8.70164 40.713 9.82266 44.314 12.5748 44.6732L12.9959 44.7283C16.4216 45.1755 19.4393 47.3334 21.0166 50.4639C21.3985 51.0826 22.1794 51.2592 22.761 50.8583C23.3425 50.4575 23.5042 49.6313 23.1224 49.0126C22.4602 47.6273 23.5361 46.0871 25.0381 46.2698L33.6894 47.3224L33.687 47.3151C31.5534 47.1012 28.56 42.5827 26.6752 36.5288C24.841 30.6375 24.6717 25.2671 26.1394 23.6032Z" fill="white"/>
<path d="M29.6501 41.1599C29.7686 40.6024 30.3167 40.2464 30.8743 40.3648L36.5827 41.5789C37.1404 41.6974 37.4964 42.2455 37.3779 42.8032C37.2594 43.3608 36.7112 43.7168 36.1535 43.5983L30.4453 42.3843C29.8876 42.2658 29.5316 41.7176 29.6501 41.1599Z" fill="white"/>
<path d="M29.5515 35.9913C29.5515 35.4212 30.0137 34.959 30.5838 34.959L37.9345 34.9625C38.5046 34.9625 38.9668 35.4247 38.9668 35.9948C38.9668 36.5649 38.5046 37.0271 37.9345 37.0271L30.5838 37.0236C30.0137 37.0236 29.5515 36.5614 29.5515 35.9913Z" fill="white"/>
<path d="M29.6699 30.8375C29.5514 30.2799 29.9074 29.7317 30.465 29.6132L37.6627 28.0865C38.2204 27.9679 38.7685 28.3239 38.8871 28.8816C39.0056 29.4392 38.6496 29.9874 38.092 30.1059L30.8943 31.6326C30.3366 31.7512 29.7885 31.3952 29.6699 30.8375Z" fill="white"/>
</g>
</g>
</g>
<defs>
<linearGradient id="paint0_linear_3633_4021" x1="29.5149" y1="68.8807" x2="20.9269" y2="20.1791" gradientUnits="userSpaceOnUse">
<stop stop-color="#8C48FF"/>
<stop offset="0.5" stop-color="#4E6FEE"/>
<stop offset="1" stop-color="#1097DD"/>
</linearGradient>
<linearGradient id="paint1_linear_3633_4021" x1="22.4734" y1="48.2859" x2="22.7606" y2="63.86" gradientUnits="userSpaceOnUse">
<stop stop-color="#47229F" stop-opacity="0"/>
<stop offset="0.25" stop-color="#28125D" stop-opacity="0.4"/>
<stop offset="0.5" stop-color="#09011B" stop-opacity="0.8"/>
<stop offset="0.75" stop-color="#28125D" stop-opacity="0.4"/>
<stop offset="1" stop-color="#47229F" stop-opacity="0"/>
</linearGradient>
<linearGradient id="paint2_linear_3633_4021" x1="2.11977" y1="36.1084" x2="13.1841" y2="35.8268" gradientUnits="userSpaceOnUse">
<stop stop-color="#47229F" stop-opacity="0"/>
<stop offset="0.25" stop-color="#28125D" stop-opacity="0.405"/>
<stop offset="0.5" stop-color="#09011B" stop-opacity="0.81"/>
<stop offset="0.75" stop-color="#28125D" stop-opacity="0.405"/>
<stop offset="1" stop-color="#47229F" stop-opacity="0"/>
</linearGradient>
<linearGradient id="paint3_linear_3633_4021" x1="48.3451" y1="35.248" x2="39.3915" y2="-7.14066" gradientUnits="userSpaceOnUse">
<stop stop-color="#00AEFF"/>
<stop offset="0.5" stop-color="#1181E7"/>
<stop offset="1" stop-color="#2253CE"/>
</linearGradient>
<linearGradient id="paint4_linear_3633_4021" x1="41.0413" y1="39.4865" x2="65.1261" y2="57.5098" gradientUnits="userSpaceOnUse">
<stop stop-color="#F2598A"/>
<stop offset="0.5" stop-color="#F95C63"/>
<stop offset="1" stop-color="#FF5F3D"/>
</linearGradient>
<linearGradient id="paint5_linear_3633_4021" x1="72.1008" y1="65.027" x2="46.1838" y2="43.99" gradientUnits="userSpaceOnUse">
<stop stop-color="#FFB152"/>
<stop offset="0.5" stop-color="#FFB152" stop-opacity="0.5"/>
<stop offset="1" stop-color="#FFB152" stop-opacity="0"/>
</linearGradient>
<radialGradient id="paint6_radial_3633_4021" cx="0" cy="0" r="1" gradientUnits="userSpaceOnUse" gradientTransform="translate(0.808643 11.8215) rotate(-0.292446) scale(28.193 28.193)">
<stop stop-color="#A44CE3"/>
<stop offset="0.5" stop-color="#A44CE3" stop-opacity="0.5"/>
<stop offset="1" stop-color="#A44CE3" stop-opacity="0"/>
</radialGradient>
<clipPath id="clip0_3633_4021">
<rect width="72" height="72" fill="white"/>
</clipPath>
</defs>
</svg>
