<svg width="72" height="72" viewBox="0 0 72 72" fill="none" xmlns="http://www.w3.org/2000/svg">
<g clip-path="url(#clip0_3633_2218)">
<mask id="mask0_3633_2218" style="mask-type:luminance" maskUnits="userSpaceOnUse" x="0" y="0" width="72" height="72">
<path d="M72 0H0V72H72V0Z" fill="white"/>
</mask>
<g mask="url(#mask0_3633_2218)">
<mask id="mask1_3633_2218" style="mask-type:luminance" maskUnits="userSpaceOnUse" x="-1" y="-1" width="74" height="74">
<path d="M-0.25 -0.25H72.25V72.25H-0.25V-0.25Z" fill="white"/>
</mask>
<g mask="url(#mask1_3633_2218)">
<path d="M37.6885 22.6654L5.93455 29.2944C4.90207 29.5098 4.13127 30.2877 3.8751 31.2412L3.78856 32.1087C3.79671 32.2361 3.8139 32.3645 3.84072 32.493L10.4694 64.2472C10.672 65.2174 11.3713 65.9566 12.246 66.2547L13.4612 66.3759C13.53 66.367 13.599 66.3554 13.6681 66.3409L45.4223 59.7121C46.8839 59.407 47.8212 57.9749 47.516 56.5134L40.8872 24.7593C40.64 23.5752 39.6532 22.7352 38.5103 22.6212C38.2425 22.5945 37.9659 22.6076 37.6885 22.6654Z" fill="url(#paint0_linear_3633_2218)"/>
<path d="M11.6811 28.0947L5.93402 29.2944C5.61295 29.3613 5.31721 29.4828 5.05438 29.647C4.43974 30.3274 3.99329 31.1687 3.78823 32.1106C3.79634 32.2372 3.81358 32.365 3.84019 32.4929L10.4691 64.2472C10.6527 65.1269 11.2449 65.8169 12.0059 66.1601L13.7165 66.3307L45.4219 59.7121C46.8835 59.407 47.8209 57.9749 47.5158 56.5134L42.2193 31.1412L11.6811 28.0947Z" fill="url(#paint1_linear_3633_2218)"/>
<path d="M11.6812 28.0947L5.93402 29.2944C5.61295 29.3613 5.31721 29.4828 5.05438 29.647C4.43974 30.3274 3.99329 31.1687 3.78823 32.1106C3.79634 32.2372 3.81358 32.365 3.84019 32.4929L7.87432 51.751L45.5835 51.3635L42.2193 31.1412L11.6812 28.0947Z" fill="url(#paint2_linear_3633_2218)"/>
<path d="M29.0437 7.90786L23.0624 41.5845C22.7873 43.1345 23.8207 44.614 25.3706 44.8894L59.047 50.8705C60.5969 51.1458 62.0765 50.1124 62.3518 48.5624L68.3331 14.886C68.6083 13.336 67.5749 11.8564 66.0249 11.5811L32.3485 5.59995C32.0966 5.55518 31.8468 5.54504 31.6035 5.56601C30.3497 5.67427 29.2742 6.61001 29.0437 7.90786Z" fill="url(#paint3_linear_3633_2218)"/>
<path d="M10.3401 14.8153C6.89094 14.9155 4.17599 17.793 4.27623 21.2421L5.18379 52.4695C5.28403 55.9188 8.16151 58.6336 11.6107 58.5334L61.5744 57.0813C65.0236 56.9811 67.7385 54.1037 67.6383 50.6544L66.7307 19.427C66.6305 15.9779 63.753 13.2629 60.3039 13.3632L10.3401 14.8153Z" fill="url(#paint4_linear_3633_2218)"/>
<path d="M10.3401 14.8153C6.89094 14.9155 4.17599 17.793 4.27623 21.2421L5.18379 52.4695C5.28403 55.9188 8.16151 58.6336 11.6107 58.5334L61.5744 57.0813C65.0236 56.9811 67.7385 54.1037 67.6383 50.6544L66.7307 19.427C66.6305 15.9779 63.753 13.2629 60.3039 13.3632L10.3401 14.8153Z" fill="url(#paint5_linear_3633_2218)"/>
<path d="M10.3401 14.8153C6.89094 14.9155 4.17599 17.793 4.27623 21.2421L5.18379 52.4695C5.28403 55.9188 8.16151 58.6336 11.6107 58.5334L61.5744 57.0813C65.0236 56.9811 67.7385 54.1037 67.6383 50.6544L66.7307 19.427C66.6305 15.9779 63.753 13.2629 60.3039 13.3632L10.3401 14.8153Z" fill="url(#paint6_radial_3633_2218)"/>
<path d="M34.2782 43.6319C32.2435 45.0086 27.3004 40.937 23.2376 34.5379C19.1748 28.1387 17.5307 21.8351 19.5656 20.4584C21.6005 19.0816 26.5436 23.153 30.6062 29.5524C34.669 35.9514 36.3131 42.2551 34.2782 43.6319Z" fill="#FFA0BA"/>
<path d="M19.0083 21.119L7.10505 41.3581C5.55316 44.0287 7.75152 47.4915 10.7429 47.088L11.2007 47.0263C14.9242 46.5243 18.7045 47.9339 21.2484 50.7733C21.8249 51.3145 22.6949 51.2784 23.1918 50.6925C23.6886 50.1069 23.624 49.1935 23.0477 48.6522C21.9596 47.3856 22.6522 45.4634 24.281 45.2292L33.6626 43.8805L33.6581 43.8735C31.3573 44.2542 26.9329 40.3592 23.237 34.5377C19.6402 28.8727 17.9393 23.2822 19.0083 21.119Z" fill="white"/>
<path d="M41.9478 46.1989C41.9478 45.2456 42.7205 44.4728 43.6737 44.4726L55.3255 44.472C56.2788 44.4719 57.0518 45.2446 57.0518 46.198C57.0518 47.1514 56.279 47.9242 55.3256 47.9242L43.6741 47.9251C42.7207 47.9251 41.9478 47.1522 41.9478 46.1989Z" fill="white"/>
<path d="M53.3384 35.9799C53.3384 35.0265 54.1112 34.2536 55.0646 34.2536L58.3466 34.2593C59.3 34.2593 60.0728 35.0321 60.0728 35.9855C60.0728 36.9389 59.3 37.7117 58.3466 37.7117L55.0646 37.7061C54.1112 37.7061 53.3384 36.9332 53.3384 35.9799Z" fill="white"/>
<path d="M56.0254 25.4787C56.0254 24.5253 56.7982 23.7524 57.7516 23.7524L58.3464 23.7568C59.2997 23.7568 60.0726 24.5296 60.0726 25.483C60.0726 26.4364 59.2997 27.2092 58.3464 27.2092L57.7516 27.2049C56.7982 27.2049 56.0254 26.432 56.0254 25.4787Z" fill="white"/>
</g>
</g>
</g>
<defs>
<linearGradient id="paint0_linear_3633_2218" x1="27.6632" y1="65.3668" x2="23.4952" y2="20.5144" gradientUnits="userSpaceOnUse">
<stop stop-color="#8C48FF"/>
<stop offset="0.5" stop-color="#4E6FEE"/>
<stop offset="1" stop-color="#1097DD"/>
</linearGradient>
<linearGradient id="paint1_linear_3633_2218" x1="22.8049" y1="46.1457" x2="21.8759" y2="66.1461" gradientUnits="userSpaceOnUse">
<stop stop-color="#47229F" stop-opacity="0"/>
<stop offset="0.25" stop-color="#28125D" stop-opacity="0.4"/>
<stop offset="0.5" stop-color="#09011B" stop-opacity="0.8"/>
<stop offset="0.75" stop-color="#28125D" stop-opacity="0.4"/>
<stop offset="1" stop-color="#47229F" stop-opacity="0"/>
</linearGradient>
<linearGradient id="paint2_linear_3633_2218" x1="5.23464" y1="33.5743" x2="15.3002" y2="34.1429" gradientUnits="userSpaceOnUse">
<stop stop-color="#47229F" stop-opacity="0"/>
<stop offset="0.25" stop-color="#28125D" stop-opacity="0.405"/>
<stop offset="0.5" stop-color="#09011B" stop-opacity="0.81"/>
<stop offset="0.75" stop-color="#28125D" stop-opacity="0.405"/>
<stop offset="1" stop-color="#47229F" stop-opacity="0"/>
</linearGradient>
<linearGradient id="paint3_linear_3633_2218" x1="48.1847" y1="36.8722" x2="36.9913" y2="-2.2345" gradientUnits="userSpaceOnUse">
<stop stop-color="#00AEFF"/>
<stop offset="0.5" stop-color="#1181E7"/>
<stop offset="1" stop-color="#2253CE"/>
</linearGradient>
<linearGradient id="paint4_linear_3633_2218" x1="41.2678" y1="39.4595" x2="66.4674" y2="57.392" gradientUnits="userSpaceOnUse">
<stop stop-color="#F2598A"/>
<stop offset="0.5" stop-color="#F95C63"/>
<stop offset="1" stop-color="#FF5F3D"/>
</linearGradient>
<linearGradient id="paint5_linear_3633_2218" x1="73.8216" y1="64.9469" x2="46.6644" y2="43.9619" gradientUnits="userSpaceOnUse">
<stop stop-color="#FFB152"/>
<stop offset="0.5" stop-color="#FFB152" stop-opacity="0.5"/>
<stop offset="1" stop-color="#FFB152" stop-opacity="0"/>
</linearGradient>
<radialGradient id="paint6_radial_3633_2218" cx="0" cy="0" r="1" gradientUnits="userSpaceOnUse" gradientTransform="translate(-0.767167 12.0142) rotate(-1.6647) scale(28.9869 28.9869)">
<stop stop-color="#A44CE3"/>
<stop offset="0.5" stop-color="#A44CE3" stop-opacity="0.5"/>
<stop offset="1" stop-color="#A44CE3" stop-opacity="0"/>
</radialGradient>
<clipPath id="clip0_3633_2218">
<rect width="72" height="72" fill="white"/>
</clipPath>
</defs>
</svg>
