<svg width="72" height="72" viewBox="0 0 72 72" fill="none" xmlns="http://www.w3.org/2000/svg">
<g clip-path="url(#clip0_3633_1978)">
<mask id="mask0_3633_1978" style="mask-type:luminance" maskUnits="userSpaceOnUse" x="0" y="0" width="72" height="72">
<path d="M72 0H0V72H72V0Z" fill="white"/>
</mask>
<g mask="url(#mask0_3633_1978)">
<mask id="mask1_3633_1978" style="mask-type:luminance" maskUnits="userSpaceOnUse" x="-1" y="-1" width="74" height="74">
<path d="M-0.25 -0.25H72.25V72.25H-0.25V-0.25Z" fill="white"/>
</mask>
<g mask="url(#mask1_3633_1978)">
<path d="M36.4342 21.0247L1.92218 31.8052C0.800014 32.1556 0.028835 33.1018 -0.152462 34.1872L-0.154861 35.159C-0.13207 35.2994 -0.0991506 35.44 -0.0555285 35.5796L10.7247 70.0919C11.0542 71.1464 11.9097 71.891 12.9122 72.1273L14.2735 72.1307C14.3489 72.1134 14.4241 72.093 14.4992 72.0695L49.0116 61.2891C50.6001 60.7929 51.4853 59.1031 50.9891 57.5146L40.2087 23.0024C39.8067 21.7155 38.6213 20.8901 37.3411 20.887C37.0411 20.8862 36.7357 20.9306 36.4342 21.0247Z" fill="url(#paint0_linear_3633_1978)"/>
<path d="M8.1681 29.8541L1.92185 31.8052C1.57289 31.9141 1.25791 32.0808 0.984043 32.2913C0.375588 33.1125 -0.0289021 34.0941 -0.154759 35.1611C-0.132108 35.3006 -0.09919 35.4405 -0.0558555 35.5796L10.7247 70.0919C11.0233 71.0481 11.7547 71.7496 12.636 72.0483L14.552 72.053L49.0114 61.2891C50.5999 60.7929 51.4853 59.1031 50.9891 57.5146L42.3755 29.9386L8.1681 29.8541Z" fill="url(#paint1_linear_3633_1978)"/>
<path d="M8.16824 29.8541L1.92185 31.8052C1.57289 31.9141 1.25791 32.0808 0.984043 32.2913C0.375588 33.1125 -0.0289021 34.0941 -0.154759 35.1611C-0.132108 35.3006 -0.09919 35.4405 -0.0558555 35.5796L6.49762 56.5089L48.2898 52.0099L42.3755 29.9386L8.16824 29.8541Z" fill="url(#paint2_linear_3633_1978)"/>
<path d="M30.4668 2.12775L21.0086 37.7326C20.5734 39.3714 21.5491 41.0525 23.1877 41.488L58.7923 50.9459C60.4309 51.3812 62.1122 50.4057 62.5475 48.767L72.0058 13.1624C72.4411 11.5236 71.4654 9.84232 69.8266 9.40701L34.2221 -0.0510838C33.9558 -0.121867 33.6885 -0.155302 33.4255 -0.154736C32.0701 -0.151673 30.8314 0.755593 30.4668 2.12775Z" fill="url(#paint3_linear_3633_1978)"/>
<path d="M11.7578 14.8027C8.41843 14.8051 5.71314 17.5143 5.71556 20.8538L5.73743 51.0876C5.73985 54.4272 8.44906 57.1323 11.7885 57.1299L60.1626 57.0949C63.502 57.0925 66.2073 54.3834 66.2049 51.0439L66.183 20.81C66.1806 17.4706 63.4714 14.7653 60.132 14.7677L11.7578 14.8027Z" fill="url(#paint4_linear_3633_1978)"/>
<path d="M11.7578 14.8027C8.41843 14.8051 5.71314 17.5143 5.71556 20.8538L5.73743 51.0876C5.73985 54.4272 8.44906 57.1323 11.7885 57.1299L60.1626 57.0949C63.502 57.0925 66.2073 54.3834 66.2049 51.0439L66.183 20.81C66.1806 17.4706 63.4714 14.7653 60.132 14.7677L11.7578 14.8027Z" fill="url(#paint5_linear_3633_1978)"/>
<path d="M11.7578 14.8027C8.41843 14.8051 5.71314 17.5143 5.71556 20.8538L5.73743 51.0876C5.73985 54.4272 8.44906 57.1323 11.7885 57.1299L60.1626 57.0949C63.502 57.0925 66.2073 54.3834 66.2049 51.0439L66.183 20.81C66.1806 17.4706 63.4714 14.7653 60.132 14.7677L11.7578 14.8027Z" fill="url(#paint6_radial_3633_1978)"/>
<path d="M34.1961 47.8505C32.0611 48.475 28.9244 43.5977 27.1904 36.9568C25.4563 30.3159 25.7814 24.4261 27.9166 23.8016C30.0518 23.177 33.1884 28.0542 34.9223 34.6952C36.6564 41.336 36.3313 47.2259 34.1961 47.8505Z" fill="#FFA0BA"/>
<path d="M27.2536 24.2172L11.3947 38.3777C9.31828 40.2514 10.2565 43.845 12.9474 44.324L13.3592 44.3974C16.7086 44.9939 19.5785 47.2545 20.987 50.406C21.3345 51.0321 22.0946 51.2415 22.685 50.8737C23.2753 50.506 23.4721 49.7007 23.1249 49.0746C22.5368 47.6816 23.6654 46.2157 25.1346 46.464L33.5968 47.8947L33.5949 47.8874C31.5057 47.5796 28.7676 42.9979 27.1901 36.9565C25.6549 31.0775 25.7338 25.7869 27.2536 24.2172Z" fill="white"/>
<path d="M41.9475 46.1989C41.9475 45.2457 42.7202 44.4728 43.6734 44.4727L55.3252 44.4721C56.2786 44.4719 57.0516 45.2446 57.0516 46.198C57.0516 47.1514 56.2787 47.9242 55.3254 47.9242L43.6739 47.9251C42.7205 47.9251 41.9475 47.1523 41.9475 46.1989Z" fill="white"/>
<path d="M41.9475 35.9855C41.9475 35.0321 42.7204 34.2593 43.6737 34.2593H58.3463C59.2997 34.2593 60.0725 35.0321 60.0725 35.9855C60.0725 36.9389 59.2997 37.7117 58.3463 37.7117H43.6737C42.7204 37.7117 41.9475 36.9389 41.9475 35.9855Z" fill="white"/>
<path d="M49.8584 25.4806C49.8584 24.5272 50.6312 23.7544 51.5846 23.7544L58.3462 23.7568C59.2996 23.7568 60.0724 24.5296 60.0724 25.483C60.0724 26.4364 59.2996 27.2092 58.3462 27.2092L51.5846 27.2068C50.6312 27.2068 49.8584 26.434 49.8584 25.4806Z" fill="white"/>
</g>
</g>
</g>
<defs>
<linearGradient id="paint0_linear_3633_1978" x1="29.9201" y1="69.4787" x2="20.4562" y2="20.17" gradientUnits="userSpaceOnUse">
<stop stop-color="#8C48FF"/>
<stop offset="0.5" stop-color="#4E6FEE"/>
<stop offset="1" stop-color="#1097DD"/>
</linearGradient>
<linearGradient id="paint1_linear_3633_1978" x1="22.4566" y1="48.6794" x2="22.8903" y2="63.4411" gradientUnits="userSpaceOnUse">
<stop stop-color="#47229F" stop-opacity="0"/>
<stop offset="0.25" stop-color="#28125D" stop-opacity="0.4"/>
<stop offset="0.5" stop-color="#09011B" stop-opacity="0.8"/>
<stop offset="0.75" stop-color="#28125D" stop-opacity="0.4"/>
<stop offset="1" stop-color="#47229F" stop-opacity="0"/>
</linearGradient>
<linearGradient id="paint2_linear_3633_1978" x1="1.60781" y1="36.6288" x2="12.8357" y2="36.1735" gradientUnits="userSpaceOnUse">
<stop stop-color="#47229F" stop-opacity="0"/>
<stop offset="0.25" stop-color="#28125D" stop-opacity="0.405"/>
<stop offset="0.5" stop-color="#09011B" stop-opacity="0.81"/>
<stop offset="0.75" stop-color="#28125D" stop-opacity="0.405"/>
<stop offset="1" stop-color="#47229F" stop-opacity="0"/>
</linearGradient>
<linearGradient id="paint3_linear_3633_1978" x1="48.397" y1="34.9417" x2="39.912" y2="-8.04074" gradientUnits="userSpaceOnUse">
<stop stop-color="#00AEFF"/>
<stop offset="0.5" stop-color="#1181E7"/>
<stop offset="1" stop-color="#2253CE"/>
</linearGradient>
<linearGradient id="paint4_linear_3633_1978" x1="41.0013" y1="39.4911" x2="64.8875" y2="57.5296" gradientUnits="userSpaceOnUse">
<stop stop-color="#F2598A"/>
<stop offset="0.5" stop-color="#F95C63"/>
<stop offset="1" stop-color="#FF5F3D"/>
</linearGradient>
<linearGradient id="paint5_linear_3633_1978" x1="71.7947" y1="65.0398" x2="46.0985" y2="43.9946" gradientUnits="userSpaceOnUse">
<stop stop-color="#FFB152"/>
<stop offset="0.5" stop-color="#FFB152" stop-opacity="0.5"/>
<stop offset="1" stop-color="#FFB152" stop-opacity="0"/>
</linearGradient>
<radialGradient id="paint6_radial_3633_1978" cx="0" cy="0" r="1" gradientUnits="userSpaceOnUse" gradientTransform="translate(1.08961 11.7886) rotate(-0.0414546) scale(28.0528)">
<stop stop-color="#A44CE3"/>
<stop offset="0.5" stop-color="#A44CE3" stop-opacity="0.5"/>
<stop offset="1" stop-color="#A44CE3" stop-opacity="0"/>
</radialGradient>
<clipPath id="clip0_3633_1978">
<rect width="72" height="72" fill="white"/>
</clipPath>
</defs>
</svg>
