<svg width="72" height="72" viewBox="0 0 72 72" fill="none" xmlns="http://www.w3.org/2000/svg">
<g clip-path="url(#clip0_3633_4321)">
<mask id="mask0_3633_4321" style="mask-type:luminance" maskUnits="userSpaceOnUse" x="0" y="0" width="72" height="72">
<path d="M72 0H0V72H72V0Z" fill="white"/>
</mask>
<g mask="url(#mask0_3633_4321)">
<mask id="mask1_3633_4321" style="mask-type:luminance" maskUnits="userSpaceOnUse" x="-1" y="-1" width="74" height="74">
<path d="M-0.25 -0.25H72.25V72.25H-0.25V-0.25Z" fill="white"/>
</mask>
<g mask="url(#mask1_3633_4321)">
<path d="M36.4125 21.0001L1.8616 31.8495C0.738169 32.2022 -0.032823 33.151 -0.212783 34.2384L-0.213732 35.2117C-0.190694 35.3524 -0.157512 35.4931 -0.113611 35.6329L10.7355 70.1841C11.0671 71.2397 11.9251 71.9843 12.9296 72.2195L14.293 72.2208C14.3685 72.2034 14.4438 72.1829 14.519 72.1592L49.0702 61.3099C50.6606 60.8106 51.5447 59.1167 51.0453 57.5264L40.1961 22.9753C39.7914 21.687 38.6029 20.862 37.3206 20.8608C37.0202 20.8605 36.7144 20.9054 36.4125 21.0001Z" fill="url(#paint0_linear_3633_4321)"/>
<path d="M8.11449 29.886L1.8612 31.8495C1.51184 31.9591 1.19661 32.1266 0.922624 32.3378C0.314428 33.1612 -0.0892377 34.1449 -0.213698 35.2139C-0.190802 35.3535 -0.157622 35.4936 -0.11401 35.6329L10.7354 70.1841C11.0359 71.1414 11.7695 71.8429 12.6527 72.1407L14.5718 72.1426L49.07 61.3099C50.6603 60.8106 51.5446 59.1167 51.0452 57.5264L42.3765 29.9194L8.11449 29.886Z" fill="url(#paint1_linear_3633_4321)"/>
<path d="M8.11463 29.886L1.8612 31.8495C1.51184 31.9591 1.19661 32.1266 0.922624 32.3378C0.314428 33.1612 -0.0892377 34.1449 -0.213698 35.2139C-0.190802 35.3535 -0.157622 35.4936 -0.11401 35.6329L6.48125 56.5857L48.3333 52.017L42.3765 29.9194L8.11463 29.886Z" fill="url(#paint2_linear_3633_4321)"/>
<path d="M30.4946 2.03794L20.9797 37.6698C20.5419 39.3099 21.5165 40.9942 23.1563 41.4322L58.788 50.9469C60.4278 51.3848 62.1123 50.4104 62.5502 48.7703L72.0651 13.1387C72.503 11.4987 71.5285 9.81426 69.8885 9.37634L34.2568 -0.13843C33.9903 -0.209637 33.7228 -0.243456 33.4595 -0.243231C32.1026 -0.241925 30.8613 0.664737 30.4946 2.03794Z" fill="url(#paint3_linear_3633_4321)"/>
<path d="M11.7794 14.803C8.44169 14.804 5.73661 17.5106 5.73755 20.8483L5.74613 51.0665C5.74708 54.4044 8.4537 57.1093 11.7914 57.1084L60.1405 57.0946C63.4782 57.0937 66.1833 54.3872 66.1823 51.0494L66.1738 20.8311C66.1728 17.4935 63.4662 14.7884 60.1285 14.7893L11.7794 14.803Z" fill="url(#paint4_linear_3633_4321)"/>
<path d="M11.7794 14.803C8.44169 14.804 5.73661 17.5106 5.73755 20.8483L5.74613 51.0665C5.74708 54.4044 8.4537 57.1093 11.7914 57.1084L60.1405 57.0946C63.4782 57.0937 66.1833 54.3872 66.1823 51.0494L66.1738 20.8311C66.1728 17.4935 63.4662 14.7884 60.1285 14.7893L11.7794 14.803Z" fill="url(#paint5_linear_3633_4321)"/>
<path d="M11.7794 14.803C8.44169 14.804 5.73661 17.5106 5.73755 20.8483L5.74613 51.0665C5.74708 54.4044 8.4537 57.1093 11.7914 57.1084L60.1405 57.0946C63.4782 57.0937 66.1833 54.3872 66.1823 51.0494L66.1738 20.8311C66.1728 17.4935 63.4662 14.7884 60.1285 14.7893L11.7794 14.803Z" fill="url(#paint6_radial_3633_4321)"/>
<path d="M34.1837 47.912C32.0492 48.5253 28.9411 43.6409 27.2418 37.0025C25.5425 30.3641 25.8953 24.4855 28.03 23.8722C30.1648 23.2589 33.2728 28.1432 34.972 34.7817C36.6713 41.42 36.3185 47.2987 34.1837 47.912Z" fill="#FFA0BA"/>
<path d="M27.3662 24.2839L11.4651 38.3452C9.38309 40.2058 10.3025 43.798 12.9867 44.2893L13.3974 44.3645C16.7385 44.9761 19.5929 47.2468 20.984 50.4C21.3279 51.0267 22.0857 51.2394 22.677 50.875C23.2681 50.5108 23.4684 49.7077 23.1247 49.081C22.5443 47.6874 23.6781 46.2294 25.1437 46.4843L33.5853 47.9533L33.5833 47.9461C31.4991 47.6287 28.7874 43.0414 27.2416 37.0022C25.7372 31.1254 25.8413 25.8438 27.3662 24.2839Z" fill="white"/>
<path d="M38.5778 44.6968C38.6262 43.8495 39.3524 43.2018 40.1997 43.2501L50.4728 43.8371C51.3202 43.8854 51.9681 44.6116 51.9196 45.459C51.8712 46.3065 51.1449 46.9542 50.2974 46.9058L40.0246 46.319C39.1771 46.2706 38.5293 45.5443 38.5778 44.6968Z" fill="white"/>
<path d="M38.5669 35.9871C38.5669 35.1383 39.255 34.4501 40.1039 34.4501L53.0615 34.4504C53.9103 34.4504 54.5984 35.1385 54.5984 35.9874C54.5984 36.8362 53.9103 37.5243 53.0615 37.5243L40.1039 37.5241C39.255 37.5241 38.5669 36.836 38.5669 35.9871Z" fill="white"/>
<path d="M38.5799 27.0967C38.5315 26.2493 39.1792 25.523 40.0266 25.4745L52.9637 24.735C53.8111 24.6865 54.5374 25.3342 54.5859 26.1817C54.6343 27.0292 53.9866 27.7554 53.1392 27.8039L40.2021 28.5434C39.3547 28.5919 38.6284 27.9442 38.5799 27.0967Z" fill="white"/>
</g>
</g>
</g>
<defs>
<linearGradient id="paint0_linear_3633_4321" x1="29.9606" y1="69.5412" x2="20.4078" y2="20.168" gradientUnits="userSpaceOnUse">
<stop stop-color="#8C48FF"/>
<stop offset="0.5" stop-color="#4E6FEE"/>
<stop offset="1" stop-color="#1097DD"/>
</linearGradient>
<linearGradient id="paint1_linear_3633_4321" x1="22.4539" y1="48.7198" x2="22.8959" y2="63.3494" gradientUnits="userSpaceOnUse">
<stop stop-color="#47229F" stop-opacity="0"/>
<stop offset="0.25" stop-color="#28125D" stop-opacity="0.4"/>
<stop offset="0.5" stop-color="#09011B" stop-opacity="0.8"/>
<stop offset="0.75" stop-color="#28125D" stop-opacity="0.4"/>
<stop offset="1" stop-color="#47229F" stop-opacity="0"/>
</linearGradient>
<linearGradient id="paint2_linear_3633_4321" x1="1.55388" y1="36.6813" x2="12.799" y2="36.2084" gradientUnits="userSpaceOnUse">
<stop stop-color="#47229F" stop-opacity="0"/>
<stop offset="0.25" stop-color="#28125D" stop-opacity="0.405"/>
<stop offset="0.5" stop-color="#09011B" stop-opacity="0.81"/>
<stop offset="0.75" stop-color="#28125D" stop-opacity="0.405"/>
<stop offset="1" stop-color="#47229F" stop-opacity="0"/>
</linearGradient>
<linearGradient id="paint3_linear_3633_4321" x1="48.402" y1="34.9115" x2="39.9634" y2="-8.12953" gradientUnits="userSpaceOnUse">
<stop stop-color="#00AEFF"/>
<stop offset="0.5" stop-color="#1181E7"/>
<stop offset="1" stop-color="#2253CE"/>
</linearGradient>
<linearGradient id="paint4_linear_3633_4321" x1="40.9968" y1="39.4915" x2="64.8628" y2="57.5312" gradientUnits="userSpaceOnUse">
<stop stop-color="#F2598A"/>
<stop offset="0.5" stop-color="#F95C63"/>
<stop offset="1" stop-color="#FF5F3D"/>
</linearGradient>
<linearGradient id="paint5_linear_3633_4321" x1="71.7631" y1="65.0405" x2="46.0894" y2="43.9949" gradientUnits="userSpaceOnUse">
<stop stop-color="#FFB152"/>
<stop offset="0.5" stop-color="#FFB152" stop-opacity="0.5"/>
<stop offset="1" stop-color="#FFB152" stop-opacity="0"/>
</linearGradient>
<radialGradient id="paint6_radial_3633_4321" cx="0" cy="0" r="1" gradientUnits="userSpaceOnUse" gradientTransform="translate(1.11799 11.7857) rotate(-0.01626) scale(28.0383 28.0383)">
<stop stop-color="#A44CE3"/>
<stop offset="0.5" stop-color="#A44CE3" stop-opacity="0.5"/>
<stop offset="1" stop-color="#A44CE3" stop-opacity="0"/>
</radialGradient>
<clipPath id="clip0_3633_4321">
<rect width="72" height="72" fill="white"/>
</clipPath>
</defs>
</svg>
