<svg width="72" height="72" viewBox="0 0 72 72" fill="none" xmlns="http://www.w3.org/2000/svg">
<g clip-path="url(#clip0_5075_1592)">
<mask id="mask0_5075_1592" style="mask-type:luminance" maskUnits="userSpaceOnUse" x="0" y="0" width="72" height="72">
<path d="M72 0H0V72H72V0Z" fill="white"/>
</mask>
<g mask="url(#mask0_5075_1592)">
<mask id="mask1_5075_1592" style="mask-type:luminance" maskUnits="userSpaceOnUse" x="0" y="0" width="72" height="72">
<path d="M0.25 0.25H71.75V71.75H0.25V0.25Z" fill="white"/>
</mask>
<g mask="url(#mask1_5075_1592)">
<path d="M36 0.25C16.2558 0.25 0.25 16.2558 0.25 36C0.25 40.9311 1.24828 45.6292 3.05394 49.9027H68.9461C70.7516 45.6292 71.75 40.9311 71.75 36C71.75 16.2558 55.7443 0.25 36 0.25Z" fill="url(#paint0_linear_5075_1592)"/>
<path d="M36 27.6309C27.1945 27.6309 20.0562 34.7692 20.0562 43.5747C20.0562 45.7739 20.5014 47.8692 21.3067 49.7751H50.6933C51.4986 47.8692 51.9439 45.7739 51.9439 43.5747C51.9439 34.7692 44.8056 27.6309 36 27.6309Z" fill="url(#paint1_linear_5075_1592)"/>
<path d="M41.4566 54.6804L36.6706 59.699C36.2926 60.0953 35.6411 60.0953 35.2633 59.699L30.4632 54.6658C29.7295 53.8965 28.6919 53.4584 27.6041 53.4584C24.2382 53.4584 22.475 57.2874 24.7449 59.6675L33.3568 68.6977C34.7924 70.203 37.2679 70.203 38.7034 68.6977L47.244 59.7422C49.5412 57.3335 47.7566 53.4584 44.3502 53.4584C43.2493 53.4584 42.1991 53.9019 41.4566 54.6804Z" fill="url(#paint2_linear_5075_1592)"/>
</g>
</g>
</g>
<defs>
<linearGradient id="paint0_linear_5075_1592" x1="2.19551" y1="13.5191" x2="53.4135" y2="40.6947" gradientUnits="userSpaceOnUse">
<stop stop-color="#FDC801" stop-opacity="0.105263"/>
<stop offset="0.5" stop-color="#F9B30A" stop-opacity="0.105263"/>
<stop offset="1" stop-color="#F69E13" stop-opacity="0.105263"/>
</linearGradient>
<linearGradient id="paint1_linear_5075_1592" x1="20.9238" y1="33.5486" x2="43.7661" y2="45.6685" gradientUnits="userSpaceOnUse">
<stop stop-color="#E06900"/>
<stop offset="0.5" stop-color="#EB750A"/>
<stop offset="1" stop-color="#F68113"/>
</linearGradient>
<linearGradient id="paint2_linear_5075_1592" x1="27.6409" y1="60.573" x2="45.3206" y2="64.3248" gradientUnits="userSpaceOnUse">
<stop stop-color="#0E8BDC"/>
<stop offset="0.5" stop-color="#1695E0"/>
<stop offset="1" stop-color="#1EA0E4"/>
</linearGradient>
<clipPath id="clip0_5075_1592">
<rect width="72" height="72" fill="white"/>
</clipPath>
</defs>
</svg>
