<svg width="72" height="72" viewBox="0 0 72 72" fill="none" xmlns="http://www.w3.org/2000/svg">
<g clip-path="url(#clip0_3022_33006)">
<mask id="mask0_3022_33006" style="mask-type:luminance" maskUnits="userSpaceOnUse" x="0" y="0" width="72" height="72">
<path d="M72 0H0V72H72V0Z" fill="white"/>
</mask>
<g mask="url(#mask0_3022_33006)">
<mask id="mask1_3022_33006" style="mask-type:luminance" maskUnits="userSpaceOnUse" x="-1" y="-1" width="74" height="74">
<path d="M-0.25 -0.25H72.25V72.25H-0.25V-0.25Z" fill="white"/>
</mask>
<g mask="url(#mask1_3022_33006)">
<path d="M15.1158 13.4171V41.413C11.835 44.3414 9.73499 48.5342 9.73499 53.2462C9.73499 62.0739 16.9661 69.2243 25.878 69.2243C34.7926 69.2243 42.0208 62.0739 42.0208 53.2462C42.0208 48.5342 39.9206 44.3414 36.6399 41.413V13.4171C36.6399 7.53376 31.8211 2.76587 25.878 2.76587C19.9349 2.76587 15.1158 7.53376 15.1158 13.4171Z" fill="url(#paint0_linear_3022_33006)"/>
<g opacity="0.2">
<path d="M25.8779 9.81445C28.1069 9.81445 29.9137 11.6213 29.9137 13.8502L29.9417 42.1737C29.9417 44.4026 28.1349 46.2095 25.9059 46.2095C23.677 46.2095 21.8701 44.4026 21.8701 42.1737L21.8422 13.8502C21.8422 11.6213 23.649 9.81445 25.8779 9.81445Z" fill="black"/>
</g>
<path d="M21.8269 37.7465L21.8344 39.5001L21.863 41.2739L21.8419 44.9927C18.852 46.4755 16.7972 49.5548 16.7972 53.113C16.7972 58.1182 20.8628 62.1756 25.8777 62.1756C30.8927 62.1756 34.9582 58.1182 34.9582 53.113C34.9582 49.5548 32.9034 46.4755 29.9134 44.9926L29.9344 41.2739L29.9059 39.5001L29.8984 37.7465C29.8984 35.5177 28.0917 33.7107 25.8627 33.7107C23.6339 33.7107 21.8269 35.5177 21.8269 37.7465Z" fill="url(#paint1_linear_3022_33006)"/>
<path d="M49.7874 29.3986V50.9989H44.1534L53.2154 68.166L62.2773 50.9989H56.836V29.3986C56.836 27.4522 55.2581 25.8743 53.3118 25.8743C51.3653 25.8743 49.7874 27.4522 49.7874 29.3986Z" fill="url(#paint2_linear_3022_33006)"/>
</g>
</g>
</g>
<defs>
<linearGradient id="paint0_linear_3022_33006" x1="15.2083" y1="36.2686" x2="36.2606" y2="36.1495" gradientUnits="userSpaceOnUse">
<stop stop-color="#99CAFE"/>
<stop offset="0.5" stop-color="#94CEFE"/>
<stop offset="1" stop-color="#90D2FF"/>
</linearGradient>
<linearGradient id="paint1_linear_3022_33006" x1="20.494" y1="21.2566" x2="31.1527" y2="62.2922" gradientUnits="userSpaceOnUse">
<stop stop-color="#F34E6F"/>
<stop offset="0.28" stop-color="#7F56A5"/>
<stop offset="0.56" stop-color="#0B5FDC"/>
<stop offset="0.61" stop-color="#0B5FDC"/>
<stop offset="0.65" stop-color="#0B5FDC"/>
<stop offset="0.83" stop-color="#1474D9"/>
<stop offset="1" stop-color="#1D88D6"/>
</linearGradient>
<linearGradient id="paint2_linear_3022_33006" x1="53.2924" y1="68.3458" x2="53.2567" y2="26.028" gradientUnits="userSpaceOnUse">
<stop stop-color="#1D88D6"/>
<stop offset="0.5" stop-color="#1474D9"/>
<stop offset="1" stop-color="#0B5FDC"/>
</linearGradient>
<clipPath id="clip0_3022_33006">
<rect width="72" height="72" fill="white"/>
</clipPath>
</defs>
</svg>
