<svg width="72" height="72" viewBox="0 0 72 72" fill="none" xmlns="http://www.w3.org/2000/svg">
<g clip-path="url(#clip0_3022_32544)">
<mask id="mask0_3022_32544" style="mask-type:luminance" maskUnits="userSpaceOnUse" x="0" y="0" width="72" height="72">
<path d="M72 0H0V72H72V0Z" fill="white"/>
</mask>
<g mask="url(#mask0_3022_32544)">
<mask id="mask1_3022_32544" style="mask-type:luminance" maskUnits="userSpaceOnUse" x="-1" y="-1" width="74" height="74">
<path d="M-0.25 -0.25H72.25V72.25H-0.25V-0.25Z" fill="white"/>
</mask>
<g mask="url(#mask1_3022_32544)">
<path d="M15.1158 13.4171V41.413C11.835 44.3414 9.73499 48.5342 9.73499 53.2462C9.73499 62.0739 16.9661 69.2243 25.878 69.2243C34.7926 69.2243 42.0208 62.0739 42.0208 53.2462C42.0208 48.5342 39.9206 44.3414 36.6399 41.413V13.4171C36.6399 7.53376 31.8211 2.76587 25.878 2.76587C19.9349 2.76587 15.1158 7.53376 15.1158 13.4171Z" fill="url(#paint0_linear_3022_32544)"/>
<g opacity="0.2">
<path d="M25.8779 9.81445C28.1069 9.81445 29.9137 11.6213 29.9137 13.8502L29.9417 42.1737C29.9417 44.4026 28.1349 46.2095 25.9059 46.2095C23.677 46.2095 21.8701 44.4026 21.8701 42.1737L21.8422 13.8502C21.8422 11.6213 23.649 9.81445 25.8779 9.81445Z" fill="black"/>
</g>
<path d="M21.8306 33.843L21.8363 37.1476L21.8578 39.723L21.8419 44.9927C18.852 46.4755 16.7972 49.5549 16.7972 53.113C16.7972 58.1183 20.8628 62.1757 25.8777 62.1757C30.8927 62.1757 34.9582 58.1183 34.9582 53.113C34.9582 49.5549 32.9034 46.4755 29.9134 44.9926L29.9292 39.723L29.9077 37.1476L29.9021 33.843C29.9021 31.6142 28.0954 29.8073 25.8664 29.8073C23.6376 29.8073 21.8306 31.6142 21.8306 33.843Z" fill="url(#paint1_linear_3022_32544)"/>
<path d="M49.7874 26.7303V48.3305H44.1534L53.2154 65.4976L62.2773 48.3305H56.836V26.7303C56.836 24.7838 55.2581 23.2059 53.3118 23.2059C51.3653 23.2059 49.7874 24.7838 49.7874 26.7303Z" fill="url(#paint2_linear_3022_32544)"/>
</g>
</g>
</g>
<defs>
<linearGradient id="paint0_linear_3022_32544" x1="15.2083" y1="36.2686" x2="36.2606" y2="36.1495" gradientUnits="userSpaceOnUse">
<stop stop-color="#99CAFE"/>
<stop offset="0.5" stop-color="#94CEFE"/>
<stop offset="1" stop-color="#90D2FF"/>
</linearGradient>
<linearGradient id="paint1_linear_3022_32544" x1="20.494" y1="21.2567" x2="31.1527" y2="62.2922" gradientUnits="userSpaceOnUse">
<stop stop-color="#F34E6F"/>
<stop offset="0.28" stop-color="#7F56A5"/>
<stop offset="0.56" stop-color="#0B5FDC"/>
<stop offset="0.61" stop-color="#0B5FDC"/>
<stop offset="0.65" stop-color="#0B5FDC"/>
<stop offset="0.83" stop-color="#1474D9"/>
<stop offset="1" stop-color="#1D88D6"/>
</linearGradient>
<linearGradient id="paint2_linear_3022_32544" x1="53.2924" y1="65.6774" x2="53.2567" y2="23.3596" gradientUnits="userSpaceOnUse">
<stop stop-color="#1D88D6"/>
<stop offset="0.5" stop-color="#1474D9"/>
<stop offset="1" stop-color="#0B5FDC"/>
</linearGradient>
<clipPath id="clip0_3022_32544">
<rect width="72" height="72" fill="white"/>
</clipPath>
</defs>
</svg>
